<?xml version="1.0" encoding="UTF-8"?>
<svg xmlns="http://www.w3.org/2000/svg" xmlns:xlink="http://www.w3.org/1999/xlink" width="96px" height="69px" viewBox="0 0 95 69" version="1.1">
<g id="surface1">
<path style=" stroke:none;fill-rule:nonzero;fill:rgb(13.72549%,58.823529%,92.941176%);fill-opacity:1;" d="M 93.039062 26.292969 C 90.898438 24.800781 85.996094 24.242188 82.164062 24.988281 C 81.71875 21.257812 79.667969 17.996094 76.105469 15.105469 L 74.054688 13.613281 L 72.628906 15.757812 C 70.84375 18.554688 69.953125 22.472656 70.21875 26.199219 C 70.308594 27.503906 70.753906 29.835938 72.09375 31.886719 C 70.84375 32.632812 68.257812 33.566406 64.871094 33.566406 L 0.429688 33.566406 L 0.25 34.3125 C -0.375 38.042969 -0.375 49.695312 6.933594 58.648438 C 12.460938 65.453125 20.660156 68.902344 31.445312 68.902344 C 54.800781 68.902344 72.09375 57.621094 80.203125 37.203125 C 83.414062 37.296875 90.277344 37.203125 93.753906 30.210938 C 93.839844 30.023438 94.019531 29.648438 94.644531 28.25 L 95 27.503906 Z M 51.949219 0 L 42.144531 0 L 42.144531 9.324219 L 51.949219 9.324219 Z M 51.949219 11.1875 L 42.144531 11.1875 L 42.144531 20.511719 L 51.949219 20.511719 Z M 40.359375 11.1875 L 30.554688 11.1875 L 30.554688 20.511719 L 40.359375 20.511719 Z M 28.773438 11.1875 L 18.96875 11.1875 L 18.96875 20.511719 L 28.773438 20.511719 Z M 17.1875 22.378906 L 7.382812 22.378906 L 7.382812 31.703125 L 17.1875 31.703125 Z M 28.773438 22.378906 L 18.96875 22.378906 L 18.96875 31.703125 L 28.773438 31.703125 Z M 40.359375 22.378906 L 30.554688 22.378906 L 30.554688 31.703125 L 40.359375 31.703125 Z M 51.949219 22.378906 L 42.144531 22.378906 L 42.144531 31.703125 L 51.949219 31.703125 Z M 63.535156 22.378906 L 53.730469 22.378906 L 53.730469 31.703125 L 63.535156 31.703125 Z M 63.535156 22.378906 "/>
</g>
</svg>
