<?xml version="1.0" encoding="UTF-8"?>
<svg xmlns="http://www.w3.org/2000/svg" xmlns:xlink="http://www.w3.org/1999/xlink" width="96px" height="108px" viewBox="0 0 96 108" version="1.1">
<g id="surface1">
<path style=" stroke:none;fill-rule:evenodd;fill:rgb(89.803922%,20.784314%,67.058824%);fill-opacity:1;" d="M 57.214844 12.359375 L 79.394531 25.167969 C 80.019531 24.503906 80.75 23.921875 81.578125 23.441406 C 86.175781 20.796875 92.042969 22.367188 94.714844 26.964844 C 97.359375 31.566406 95.789062 37.433594 91.191406 40.105469 C 90.371094 40.578125 89.507812 40.914062 88.628906 41.125 L 88.628906 66.746094 C 89.496094 66.957031 90.351562 67.292969 91.164062 67.761719 C 95.789062 70.433594 97.359375 76.300781 94.6875 80.898438 C 92.042969 85.5 86.148438 87.070312 81.550781 84.425781 C 80.632812 83.898438 79.839844 83.242188 79.171875 82.496094 L 57.128906 95.222656 C 57.441406 96.175781 57.613281 97.195312 57.613281 98.253906 C 57.613281 103.542969 53.316406 107.867188 48 107.867188 C 42.683594 107.867188 38.386719 103.570312 38.386719 98.253906 C 38.386719 97.308594 38.523438 96.394531 38.777344 95.535156 L 16.601562 82.730469 C 15.984375 83.378906 15.265625 83.953125 14.449219 84.425781 C 9.824219 87.070312 3.957031 85.5 1.3125 80.898438 C -1.332031 76.300781 0.238281 70.433594 4.835938 67.761719 C 5.648438 67.292969 6.503906 66.957031 7.371094 66.746094 L 7.371094 41.125 C 6.492188 40.914062 5.628906 40.578125 4.808594 40.105469 C 0.210938 37.460938 -1.359375 31.566406 1.285156 26.964844 C 3.929688 22.367188 9.824219 20.796875 14.421875 23.441406 C 15.246094 23.917969 15.972656 24.5 16.59375 25.15625 L 38.78125 12.347656 C 38.523438 11.480469 38.386719 10.5625 38.386719 9.613281 C 38.386719 4.296875 42.683594 0 48 0 C 53.316406 0 57.613281 4.296875 57.613281 9.613281 C 57.613281 10.570312 57.472656 11.492188 57.214844 12.359375 Z M 54.90625 16.308594 L 77.136719 29.144531 C 76.449219 31.558594 76.703125 34.234375 78.050781 36.578125 C 79.40625 38.933594 81.609375 40.496094 84.054688 41.101562 L 84.054688 66.757812 C 83.933594 66.789062 83.808594 66.820312 83.683594 66.855469 L 54.648438 16.5625 C 54.734375 16.480469 54.820312 16.394531 54.90625 16.308594 Z M 41.359375 16.570312 L 12.320312 66.859375 C 12.195312 66.824219 12.070312 66.789062 11.945312 66.757812 L 11.945312 41.101562 C 14.390625 40.496094 16.59375 38.933594 17.949219 36.578125 C 19.300781 34.230469 19.550781 31.546875 18.859375 29.128906 L 41.085938 16.296875 C 41.175781 16.390625 41.265625 16.480469 41.359375 16.570312 Z M 50.6875 18.847656 L 79.714844 69.128906 C 79.066406 69.746094 78.492188 70.46875 78.023438 71.285156 C 77.558594 72.097656 77.222656 72.953125 77.011719 73.820312 L 18.988281 73.820312 C 18.777344 72.953125 18.445312 72.101562 17.976562 71.285156 C 17.503906 70.472656 16.933594 69.757812 16.285156 69.140625 L 45.320312 18.851562 C 46.171875 19.09375 47.070312 19.226562 48 19.226562 C 48.933594 19.226562 49.832031 19.09375 50.6875 18.847656 Z M 55.109375 91.777344 L 77.199219 79.023438 C 77.132812 78.816406 77.070312 78.605469 77.019531 78.394531 L 18.976562 78.394531 C 18.945312 78.519531 18.914062 78.640625 18.878906 78.765625 L 41.074219 91.582031 C 42.820312 89.765625 45.277344 88.640625 48 88.640625 C 50.820312 88.640625 53.351562 89.847656 55.109375 91.777344 Z M 55.109375 91.777344 "/>
</g>
</svg>
