<?xml version="1.0" encoding="UTF-8"?>
<svg xmlns="http://www.w3.org/2000/svg" xmlns:xlink="http://www.w3.org/1999/xlink" width="96px" height="96px" viewBox="0 0 96 96" version="1.1">
<g id="surface1">
<path style=" stroke:none;fill-rule:nonzero;fill:rgb(34.901961%,58.823529%,21.176471%);fill-opacity:1;" d="M 44.179688 12.480469 L 46.261719 16.386719 C 46.726562 17.109375 47.234375 17.746094 47.832031 18.34375 C 49.582031 20.070312 51.214844 21.914062 52.714844 23.863281 C 56.238281 28.492188 58.617188 33.632812 60.316406 39.191406 C 61.332031 42.585938 61.886719 46.070312 61.925781 49.59375 C 62.097656 60.125 58.488281 69.167969 51.207031 76.683594 C 50.023438 77.875 48.746094 78.96875 47.382812 79.953125 C 46.664062 79.953125 46.320312 79.398438 46.023438 78.890625 C 45.484375 77.945312 45.121094 76.910156 44.960938 75.832031 C 44.707031 74.558594 44.539062 73.285156 44.621094 71.96875 L 44.621094 71.375 C 44.5625 71.25 43.925781 12.78125 44.179688 12.480469 Z M 44.179688 12.480469 "/>
<path style=" stroke:none;fill-rule:nonzero;fill:rgb(42.352941%,67.45098%,28.235294%);fill-opacity:1;" d="M 44.179688 12.351562 C 44.09375 12.179688 44.007812 12.308594 43.925781 12.394531 C 43.964844 13.246094 43.667969 14.007812 43.203125 14.730469 C 42.691406 15.453125 42.015625 16.007812 41.335938 16.601562 C 37.558594 19.871094 34.585938 23.820312 32.207031 28.234375 C 29.039062 34.179688 27.40625 40.550781 26.945312 47.257812 C 26.730469 49.675781 27.710938 58.210938 28.472656 60.675781 C 30.550781 67.214844 34.289062 72.691406 39.128906 77.449219 C 40.320312 78.59375 41.589844 79.65625 42.90625 80.675781 C 43.289062 80.675781 43.328125 80.335938 43.417969 80.082031 C 43.585938 79.539062 43.714844 78.988281 43.800781 78.425781 L 44.652344 72.058594 Z M 44.179688 12.351562 "/>
<path style=" stroke:none;fill-rule:nonzero;fill:rgb(76.078431%,74.901961%,74.901961%);fill-opacity:1;" d="M 46.261719 82.539062 C 46.347656 81.566406 46.8125 80.757812 47.324219 79.949219 C 46.8125 79.738281 46.429688 79.316406 46.132812 78.847656 C 45.878906 78.402344 45.664062 77.933594 45.5 77.445312 C 44.90625 75.664062 44.78125 73.792969 44.609375 71.96875 L 44.609375 70.867188 C 44.398438 71.035156 44.351562 72.480469 44.351562 72.691406 C 44.230469 74.621094 43.972656 76.535156 43.589844 78.425781 C 43.460938 79.191406 43.375 79.953125 42.90625 80.632812 C 42.90625 80.71875 42.90625 80.804688 42.949219 80.929688 C 43.710938 83.179688 43.921875 85.472656 44.050781 87.808594 L 44.050781 88.664062 C 44.050781 89.679688 44.007812 89.464844 44.855469 89.808594 C 45.195312 89.933594 45.574219 89.976562 45.917969 90.230469 C 46.171875 90.230469 46.214844 90.019531 46.214844 89.847656 L 46.085938 88.449219 L 46.085938 84.539062 C 46.046875 83.859375 46.171875 83.179688 46.257812 82.542969 Z M 46.261719 82.539062 "/>
</g>
</svg>
